:SAMPLES-PER-SECOND 30
:FRAME-RANGE 1-663
:FULLY-SPECIFIED
:DEGREES
601
root  -30.2708 39.6466 -140.041 -173.027 35.7699 -179.106
RightUpLeg  -12.9383 5.2349 -0.131978
RightLeg  13.8527 19.1868 3.53845
RightFoot  -5.05241 0.0544012 -1.58546
RightToes  -3.4386e-010 1.2921e-014 -6.02303e-014
Spine  -6.6869 -3.45823 1.48891
Spine1  10.5828 -3.95849 0.542704
HEad  46.9693 -2.23658 -5.48999
LeftShoulder1  1.9623 -3.26989 -23.8694
LeftArm  1.41312 0.150847 -51.3863
LeftForeArm  30.1459 0.316316 -13.5542
LeftHand  -0.0324161 5.15559 4.40002
RightShoulder  1.16406 0.390225 25.3512
RightArm  -23.0057 -2.10729 50.1531
RightForeArm  67.124 -5.67185 5.06578
RightHand  0.291145 -7.47836 -17.1008
LeftUpLeg  -10.875 -1.5499 -1.13254
LeftLeg  10.7746 8.07626 3.55347
LeftFoot  -4.85338 0.104549 -1.38618
LeftToes  -7.12384e-010 -7.51861e-011 -8.34901e-011
602
root  -30.2226 39.6417 -140.039 -173.265 35.364 -179.201
RightUpLeg  -12.6977 4.89643 -0.142866
RightLeg  13.9514 19.1901 3.62357
RightFoot  -5.22391 0.0401009 -1.41279
RightToes  -3.4386e-010 1.2921e-014 -6.02303e-014
Spine  -6.83303 -3.52983 1.4946
Spine1  10.7712 -4.00508 0.436379
HEad  46.9839 -2.15416 -5.50258
LeftShoulder1  1.9103 -3.14017 -23.6514
LeftArm  1.40533 -0.113422 -51.444
LeftForeArm  30.1238 0.19544 -13.5294
LeftHand  -0.0298499 5.10538 4.46952
RightShoulder  1.20807 0.554411 25.152
RightArm  -23.3865 -2.2863 50.4911
RightForeArm  67.1247 -5.64332 4.89261
RightHand  0.280083 -7.43288 -16.8713
LeftUpLeg  -10.6986 -1.81606 -1.14743
LeftLeg  10.8395 7.92994 3.55741
LeftFoot  -4.90973 0.106248 -1.43644
LeftToes  -7.12384e-010 -7.51861e-011 -8.34901e-011
603
root  -30.1776 39.6303 -140.035 -173.536 34.8828 -179.272
RightUpLeg  -12.4474 4.88708 -0.147502
RightLeg  14.1207 18.7258 3.63879
RightFoot  -5.45293 0.0416978 -1.5289
RightToes  -3.4386e-010 1.2921e-014 -6.02303e-014
Spine  -6.7668 -3.44995 1.60692
Spine1  10.4769 -3.94275 0.502386
HEad  47.1219 -2.13782 -5.64505
LeftShoulder1  2.01577 -3.43471 -23.9371
LeftArm  1.30797 -0.136751 -51.1947
LeftForeArm  30.1148 0.361309 -13.5292
LeftHand  -0.0296324 5.11387 4.4332
RightShoulder  1.33211 1.01136 24.7155
RightArm  -23.0165 -3.16212 50.4855
RightForeArm  66.3042 -5.71913 5.16695
RightHand  0.253738 -7.33766 -16.1841
LeftUpLeg  -10.586 -2.16419 -1.14157
LeftLeg  11.1161 7.79958 3.58995
LeftFoot  -5.05465 0.10083 -1.37678
LeftToes  -7.12384e-010 -7.51861e-011 -8.34901e-011
604
root  -30.1457 39.6103 -140.027 -173.682 34.4096 -179.278
RightUpLeg  -12.3165 4.83129 -0.102422
RightLeg  14.3035 18.2971 3.64969
RightFoot  -5.68359 0.0477589 -1.74531
RightToes  -3.4386e-010 1.2921e-014 -6.02303e-014
Spine  -6.83503 -3.50913 1.70039
Spine1  10.6234 -3.99293 0.436856
HEad  46.9026 -1.76635 -5.6244
LeftShoulder1  1.9464 -3.25629 -23.6791
LeftArm  1.07013 -0.357203 -51.3372
LeftForeArm  30.0924 0.635347 -13.49
LeftHand  -0.0280637 5.07375 4.52332
RightShoulder  1.33085 0.999476 24.7739
RightArm  -22.5775 -2.91969 50.4909
RightForeArm  65.678 -5.77681 5.37701
RightHand  0.259295 -7.30461 -16.7425
LeftUpLeg  -10.6554 -2.57086 -1.05036
LeftLeg  11.5518 7.68794 3.56795
LeftFoot  -5.24363 0.106134 -1.48393
LeftToes  -7.12384e-010 -7.51861e-011 -8.34901e-011
605
root  -30.1218 39.5819 -140.024 -173.874 33.8547 -179.33
RightUpLeg  -12.2703 5.01581 -0.144677
RightLeg  14.6912 17.5514 3.68108
RightFoot  -6.01251 0.0447042 -1.83527
RightToes  -3.4386e-010 1.2921e-014 -6.02303e-014
Spine  -6.87592 -3.51199 1.99211
Spine1  10.6737 -3.92417 0.125944
HEad  46.8768 -1.88411 -5.49528
LeftShoulder1  1.92693 -3.24978 -23.3968
LeftArm  0.950263 -0.241899 -51.4037
LeftForeArm  30.0331 0.614609 -13.4587
LeftHand  -0.0332794 5.13061 4.43115
RightShoulder  1.29386 0.859704 24.9235
RightArm  -21.8284 -2.58308 50.3934
RightForeArm  65.1058 -5.85991 5.756
RightHand  0.235035 -7.172 -16.4269
LeftUpLeg  -10.7792 -3.28525 -1.00189
LeftLeg  12.1293 7.78577 3.61406
LeftFoot  -5.49256 0.110624 -1.578
LeftToes  -7.12384e-010 -7.51861e-011 -8.34901e-011
606
root  -30.1029 39.5496 -140.014 -174.134 33.1646 -179.257
RightUpLeg  -12.0346 5.0363 -0.0338595
RightLeg  15.0068 16.8831 3.6726
RightFoot  -6.3402 0.037007 -1.83021
RightToes  -3.4386e-010 1.2921e-014 -6.02303e-014
Spine  -6.64742 -3.47728 2.14062
Spine1  10.4837 -3.9274 0.279089
HEad  46.8489 -2.01369 -5.41968
LeftShoulder1  1.95338 -3.33079 -23.4391
LeftArm  0.991427 -0.145111 -51.2926
LeftForeArm  29.8961 0.921812 -13.5039
LeftHand  -0.038044 4.99993 4.60302
RightShoulder  1.14102 0.357248 24.9843
RightArm  -22.2512 -2.22419 50.7116
RightForeArm  65.9334 -5.78627 5.49221
RightHand  0.195331 -6.85929 -16.7108
LeftUpLeg  -10.8971 -3.9638 -0.784611
LeftLeg  12.9299 7.75669 3.52467
LeftFoot  -5.85149 0.115782 -1.68148
LeftToes  -7.12384e-010 -7.51861e-011 -8.34901e-011
607
root  -30.0991 39.5115 -140.044 -174.375 32.1651 -179.235
RightUpLeg  -11.8157 4.10999 -0.0121714
RightLeg  15.4551 16.8043 3.88256
RightFoot  -6.75029 0.0329078 -1.96063
RightToes  -3.4386e-010 1.2921e-014 -6.02303e-014
Spine  -6.83188 -3.53647 2.3258
Spine1  10.6769 -4.06027 0.523923
HEad  47.1976 -2.52328 -5.39367
LeftShoulder1  1.96113 -3.32122 -23.6074
LeftArm  1.02877 0.0513742 -51.1551
LeftForeArm  29.6798 1.11974 -13.5387
LeftHand  -0.0407598 4.92688 4.65947
RightShoulder  1.22931 0.665292 24.8011
RightArm  -21.9496 -2.52874 50.6362
RightForeArm  65.4267 -5.8368 5.68669
RightHand  0.163517 -6.64999 -16.5443
LeftUpLeg  -11.0902 -4.50595 -0.612646
LeftLeg  13.7765 7.33669 3.20249
LeftFoot  -6.29464 0.106934 -1.5682
LeftToes  -7.12384e-010 -7.51861e-011 -8.34901e-011
608
root  -30.1183 39.4635 -140.064 -174.533 31.0778 -179.123
RightUpLeg  -11.705 2.99117 0.0354076
RightLeg  15.9938 16.7261 4.19407
RightFoot  -7.18134 0.0367026 -2.34803
RightToes  -3.4386e-010 1.2921e-014 -6.02303e-014
Spine  -6.84017 -3.55709 2.81931
Spine1  10.7099 -4.06312 0.38038
HEad  47.2313 -2.91775 -5.29819
LeftShoulder1  1.95151 -3.30722 -23.5199
LeftArm  1.38791 0.249044 -51.1129
LeftForeArm  28.968 1.3562 -13.6753
LeftHand  -0.0378809 5.01508 4.76785
RightShoulder  1.0491 0.0216766 25.3581
RightArm  -21.707 -1.78389 50.3316
RightForeArm  65.7537 -5.83546 5.75208
RightHand  0.155713 -6.56945 -16.8505
LeftUpLeg  -11.4869 -6.25056 -0.388448
LeftLeg  14.9211 7.93811 3.29152
LeftFoot  -6.73153 0.111837 -1.77391
LeftToes  -7.12384e-010 -7.51861e-011 -8.34901e-011
609
root  -30.1541 39.4066 -140.083 -174.611 29.7374 -179.015
RightUpLeg  -11.628 1.91515 0.0877637
RightLeg  16.4338 16.3931 4.30963
RightFoot  -7.64746 0.0283453 -2.48288
RightToes  -3.4386e-010 1.2921e-014 -6.02303e-014
Spine  -6.87681 -3.61299 3.10546
Spine1  10.7422 -4.1857 0.599709
HEad  47.1822 -3.22614 -5.27417
LeftShoulder1  1.90483 -3.14732 -23.5275
LeftArm  -0.571255 1.66382 -51.1622
LeftForeArm  30.8975 0.0697517 -13.0309
LeftHand  -0.0141621 5.68471 4.60044
RightShoulder  0.98403 -0.208408 25.5918
RightArm  -21.7923 -1.65953 50.1192
RightForeArm  65.9683 -5.8167 5.6859
RightHand  0.161218 -6.6283 -16.6069
LeftUpLeg  -12.1457 -7.06412 -0.125257
LeftLeg  16.2455 7.47734 2.96344
LeftFoot  -7.27848 0.106759 -1.77737
LeftToes  -7.12384e-010 -7.51861e-011 -8.34901e-011
